<?xml version="1.0" encoding="UTF-8"?>
<svg version="1.1" xmlns="http://www.w3.org/2000/svg" width="1206" height="390">
  <path
    d="M0 0 C397.98 0 795.96 0 1206 0 C1206 128.7 1206 257.4 1206 390 C808.02 390 410.04 390 0 390 C0 261.3 0 132.6 0 0 Z "
    fill="#270232" transform="translate(0,0)" />
  <path
    d="M0 0 C6 0 6 0 7.68408203 1.32250977 C8.12091309 1.93924561 8.55774414 2.55598145 9.0078125 3.19140625 C9.76602295 4.22624146 9.76602295 4.22624146 10.53955078 5.28198242 C11.06274902 6.03455322 11.58594727 6.78712402 12.125 7.5625 C13.26915887 9.13403296 14.41502729 10.70432254 15.5625 12.2734375 C16.13613281 13.0684668 16.70976563 13.86349609 17.30078125 14.68261719 C19.80730204 18.10099295 22.45560445 21.39576992 25.125 24.6875 C26.12033123 25.92404505 27.11512746 27.16102094 28.109375 28.3984375 C28.83350586 29.29900879 28.83350586 29.29900879 29.57226562 30.21777344 C36.23631642 38.53644149 42.76239433 46.96664093 49.3125 55.375 C49.88726074 56.11210205 50.46202148 56.8492041 51.05419922 57.60864258 C51.60994629 58.3230249 52.16569336 59.03740723 52.73828125 59.7734375 C53.46591675 60.70808838 53.46591675 60.70808838 54.20825195 61.66162109 C56.83286272 65.08695451 59.41084248 68.54778998 62 72 C62.33 48.24 62.66 24.48 63 0 C64.98 0 66.96 0 69 0 C69 27.72 69 55.44 69 84 C63 84 63 84 61.37597656 82.8293457 C60.96831055 82.28366943 60.56064453 81.73799316 60.140625 81.17578125 C59.67011719 80.56605469 59.19960938 79.95632812 58.71484375 79.328125 C58.23144531 78.66296875 57.74804688 77.9978125 57.25 77.3125 C56.73050781 76.63058594 56.21101562 75.94867188 55.67578125 75.24609375 C54.60991124 73.84404469 53.55194656 72.43595081 52.50195312 71.02197266 C50.37073599 68.15286662 48.18424935 65.3289552 46 62.5 C45.60071289 61.97768799 45.20142578 61.45537598 44.79003906 60.91723633 C41.58654643 56.72937693 38.30390917 52.60892257 35 48.5 C31.27918524 43.87259078 27.60696793 39.21680422 24 34.5 C18.42949142 27.25833884 12.70740972 20.13426215 7 13 C6.67 36.43 6.34 59.86 6 84 C4.02 84 2.04 84 0 84 C0 56.28 0 28.56 0 0 Z "
    fill="#003366" transform="translate(762,150)" />
  <path
    d="M0 0 C1.98 0 3.96 0 6 0 C6.33 17.49 6.66 34.98 7 53 C11.08375 48.936875 15.1675 44.87375 19.375 40.6875 C20.66196777 39.40963623 21.94893555 38.13177246 23.27490234 36.81518555 C24.29544636 35.79756278 25.31580408 34.77975313 26.3359375 33.76171875 C26.86550049 33.23727173 27.39506348 32.71282471 27.94067383 32.17248535 C30.24229644 29.87141101 32.18742096 27.71886855 34 25 C34.66 25 35.32 25 36 25 C36.36121948 24.15743652 36.36121948 24.15743652 36.72973633 23.29785156 C39.42071389 18.42999055 43.81382491 14.68708756 47.6875 10.75 C48.57373047 9.81414062 49.45996094 8.87828125 50.37304688 7.9140625 C51.24380859 7.02976563 52.11457031 6.14546875 53.01171875 5.234375 C53.80022217 4.42194336 54.58872559 3.60951172 55.40112305 2.77246094 C58.75487115 0.48517008 61.02604097 0.67013006 65 1 C54.0380416 14.03584242 42.09996871 26.02996652 30 38 C31.90312037 42.08000363 34.60813719 45.20632921 37.5625 48.5625 C38.65731992 49.82068438 39.7510607 51.07980856 40.84375 52.33984375 C41.38257813 52.96101074 41.92140625 53.58217773 42.4765625 54.22216797 C44.55629114 56.64918463 46.56064959 59.1335666 48.5625 61.625 C52.68133631 66.70590027 57.05729889 71.49569376 61.51953125 76.2734375 C68 83.39685039 68 83.39685039 68 86 C65.10358408 86.61625871 63.79026071 86.81703767 61 86 C57.54722463 83.04853503 54.81989477 79.54745615 52 76 C50.52181934 74.18669578 49.04265703 72.37419132 47.5625 70.5625 C46.82386719 69.64984375 46.08523438 68.7371875 45.32421875 67.796875 C42.12572771 63.94793453 38.75867315 60.2690109 35.36328125 56.59375 C32.63291933 53.59712138 30.03469555 50.50445475 27.47265625 47.36328125 C25.96755064 45.6603348 25.96755064 45.6603348 23 46 C16.13414837 50.22549894 8.35666859 57.07816984 6.17333984 64.99902344 C5.38660802 71.01850183 5.49142532 76.98435428 5.95141602 83.02905273 C5.96744873 83.67946533 5.98348145 84.32987793 6 85 C5 86 5 86 1.9375 86.0625 C0.968125 86.041875 -0.00125 86.02125 -1 86 C-1.02312283 74.93465142 -1.04091478 63.86930855 -1.05181217 52.80394077 C-1.05704113 47.66640434 -1.06413901 42.52888437 -1.07543945 37.39135742 C-1.08626787 32.4376859 -1.09227674 27.48403026 -1.09487724 22.53034782 C-1.09673157 20.63602384 -1.10035234 18.74170076 -1.10573006 16.8473835 C-1.11293989 14.20365614 -1.11399097 11.55999529 -1.11352539 8.91625977 C-1.11712067 8.12504227 -1.12071594 7.33382477 -1.12442017 6.51863098 C-1.11405216 1.11405216 -1.11405216 1.11405216 0 0 Z "
    fill="#8D1F49" transform="translate(878,149)" />
  <path
    d="M0 0 C1.98 0 3.96 0 6 0 C7.65297909 1.65297909 7.16692183 3.61036555 7.20532227 5.88696289 C7.22526749 6.92796646 7.24521271 7.96897003 7.26576233 9.04151917 C7.28247482 10.1737944 7.29918732 11.30606964 7.31640625 12.47265625 C7.33718735 13.62543564 7.35796844 14.77821503 7.37937927 15.96592712 C7.44499964 19.66472157 7.50381755 23.36358959 7.5625 27.0625 C7.60567335 29.56315879 7.64928724 32.06381001 7.69335938 34.56445312 C7.80069368 40.70955662 7.90243643 46.85473404 8 53 C11.22386012 49.80093001 14.44436742 46.5985353 17.66186523 43.39306641 C18.75601021 42.30393822 19.8510526 41.21571078 20.94702148 40.12841797 C22.52566715 38.56195432 24.10101627 36.9922387 25.67578125 35.421875 C26.16339432 34.93942322 26.65100739 34.45697144 27.15339661 33.9598999 C29.16918843 31.94443889 31.02472107 29.96614326 32.70776367 27.66113281 C33.13420166 27.11295898 33.56063965 26.56478516 34 26 C34.66 26 35.32 26 36 26 C36.23630127 25.44280273 36.47260254 24.88560547 36.71606445 24.31152344 C39.21489696 19.81276966 43.14441847 16.36467322 46.73852539 12.72607422 C48.18171302 11.25589521 49.59910462 9.76351566 51.01757812 8.26953125 C51.93345703 7.34011719 52.84933594 6.41070312 53.79296875 5.453125 C54.6233667 4.59879883 55.45376465 3.74447266 56.30932617 2.86425781 C59.72371364 0.49856843 61.93359423 0.64348977 66 1 C61.96503822 5.77411526 57.82991405 10.43269697 53.5625 15 C52.97065918 15.63429932 52.37881836 16.26859863 51.76904297 16.92211914 C45.01446671 24.11575169 38.02089927 31.06759946 31 38 C35.09668652 46.55521121 42.41053042 53.5129431 48.75 60.46875 C51.85776341 63.96498384 54.77613137 67.6037817 57.71484375 71.2421875 C60.80646464 74.97327186 64.06229178 78.54101366 67.34765625 82.1015625 C69 84 69 84 69 85 C62.07574807 85.75198865 62.07574807 85.75198865 59.37597656 83.86474609 C57.83875012 82.20947325 56.47609801 80.49791065 55.125 78.6875 C54.0915039 77.39190313 53.05632478 76.09764714 52.01953125 74.8046875 C51.51244629 74.15854492 51.00536133 73.51240234 50.48291016 72.84667969 C48.37275519 70.2188871 46.11034841 67.77830934 43.8125 65.3125 C39.69501867 60.83755244 35.85975768 56.19282451 32.10546875 51.41015625 C29.93236477 48.92257712 27.63501454 46.98200919 25 45 C12.45220399 54.48552275 12.45220399 54.48552275 6.6484375 68.47265625 C6.29150349 74.33243106 6.46204288 80.15626556 7 86 C4.69 86 2.38 86 0 86 C0 57.62 0 29.24 0 0 Z "
    fill="#92204A" transform="translate(259,149)" />
  <path
    d="M0 0 C5.94072787 -0.0746515 11.8811773 -0.12883772 17.82226562 -0.16479492 C19.83956667 -0.17979884 21.85683556 -0.20020855 23.87402344 -0.22631836 C26.78849263 -0.26307353 29.70252726 -0.27981068 32.6171875 -0.29296875 C33.95062698 -0.31619453 33.95062698 -0.31619453 35.31100464 -0.33988953 C45.16612779 -0.34248574 53.82576191 2.0322148 61 9 C64.50679938 13.60267419 64.56716627 18.41121923 64.4140625 24.02734375 C63.56170011 30.14666241 60.28024552 34.0836208 55.6875 38 C54.800625 38.66 53.91375 39.32 53 40 C54.93307497 41.28871665 56.8904687 42.54202443 58.875 43.75 C63.11882671 46.80555523 66.30938128 49.92814383 68 55 C68.14648082 57.26763574 68.2209626 59.54032366 68.25 61.8125 C68.27578125 63.01519531 68.3015625 64.21789062 68.328125 65.45703125 C67.83531106 70.77824846 65.89423036 74.72627022 61.8125 78.1875 C61.28269531 78.65542969 60.75289062 79.12335938 60.20703125 79.60546875 C53.05864673 84.12223561 46.51268903 84.41407724 38.28125 84.29296875 C37.18276733 84.28872391 36.08428467 84.28447906 34.95251465 84.28010559 C31.4680864 84.26340661 27.98425139 84.22576996 24.5 84.1875 C22.12761256 84.17244185 19.75521599 84.15875543 17.3828125 84.14648438 C11.58834164 84.11353188 5.79421322 84.06342035 0 84 C0 82.35 0 80.7 0 79 C1.31081543 78.98541748 2.62163086 78.97083496 3.97216797 78.95581055 C8.87396394 78.89747545 13.77531735 78.82024648 18.67675781 78.73754883 C20.7909421 78.70446426 22.90521123 78.67638204 25.01953125 78.65356445 C28.07328159 78.61971392 31.12626594 78.56738455 34.1796875 78.51171875 C35.11239471 78.50532883 36.04510193 78.4989389 37.006073 78.49235535 C44.63498381 78.3246021 52.01606976 77.43586142 58.0625 72.5 C62.04377617 67.36286946 61.7261369 61.23817612 61 55 C58.86080145 50.24212737 54.73386677 47.83558099 50 46 C44.61719953 44.83110156 39.2722165 44.78197194 33.7890625 44.68359375 C32.33685806 44.6524221 32.33685806 44.6524221 30.85531616 44.62062073 C27.77861268 44.55551016 24.70182764 44.49642002 21.625 44.4375 C19.53254383 44.39427814 17.44009574 44.3506627 15.34765625 44.30664062 C10.23185331 44.19986844 5.11596875 44.09849364 0 44 C0 42.35 0 40.7 0 39 C1.15935059 38.98541748 2.31870117 38.97083496 3.51318359 38.95581055 C7.85592955 38.89739701 12.19818011 38.82017038 16.54052734 38.73754883 C18.41218973 38.70450053 20.28394697 38.6764075 22.15576172 38.65356445 C38.24060274 38.77227019 38.24060274 38.77227019 53 33.125 C56.75428158 29.13607582 57.40200512 25.45090811 57.2578125 19.9921875 C56.66873197 15.4402016 54.39467125 11.95663091 51 9 C44.86693745 6.00638502 38.65160627 5.53749618 31.93359375 5.48828125 C31.01409439 5.47033005 30.09459503 5.45237885 29.14723206 5.43388367 C26.24403308 5.38020739 23.34099439 5.34602319 20.4375 5.3125 C18.45505602 5.27928916 16.47263308 5.24479608 14.49023438 5.20898438 C9.66027276 5.124506 4.83035514 5.05749288 0 5 C0 3.35 0 1.7 0 0 Z "
    fill="#90214A" transform="translate(552,150)" />
  <path
    d="M0 0 C-0.66 1.65 -1.32 3.3 -2 5 C-8 3 -8 3 -9.98046875 2.24316406 C-15.61242948 0.16836614 -20.58265945 -0.49084813 -26.5625 -0.4375 C-27.36107422 -0.45748047 -28.15964844 -0.47746094 -28.98242188 -0.49804688 C-34.77627417 -0.49332491 -39.15913751 0.76801867 -44 4 C-47.53001203 7.61826233 -48.30250235 10.58671108 -48.5625 15.5 C-48.36386798 19.57195649 -47.9830588 22.76426837 -44.89453125 25.7421875 C-36.61883384 31.23656805 -25.83724006 33.30572643 -16.3359375 35.76953125 C-8.19068979 37.96107772 -3.08944776 41.31101152 2 48 C4.38724663 52.77449326 3.84801892 60.22334375 2.31640625 65.23828125 C-1.25129452 71.91476692 -7.08809986 75.48658177 -14 78 C-26.78287257 81.26371214 -40.18042356 79.47292992 -51.5 73 C-54.61088252 71.10984353 -55.94038704 70.08941944 -58 67 C-57.34 66.01 -56.68 65.02 -56 64 C-52.61066915 65.2980416 -49.44688552 66.78663652 -46.25 68.5 C-37.24953092 73.00023454 -27.09844949 74.82390716 -17.1875 72.27734375 C-11.46517087 70.17404718 -6.81919028 67.63838057 -4 62 C-3.41861675 56.8423 -3.02078884 52.48461047 -5.9375 48.0625 C-13.86920462 42.72073975 -22.74526404 40.5739041 -31.91601562 38.2890625 C-46.67483726 34.46840721 -46.67483726 34.46840721 -51.4375 28.4375 C-51.91058594 27.85871094 -52.38367188 27.27992188 -52.87109375 26.68359375 C-56.43202461 21.37300136 -55.49808388 14.08925076 -55 8 C-52.22758726 1.92201823 -47.37318794 -1.83422347 -41.4375 -4.75 C-28.01423456 -9.63118743 -11.97576504 -7.78313221 0 0 Z "
    fill="#8E204A" transform="translate(510,156)" />
  <path
    d="M0 0 C2.31 0 4.62 0 7 0 C13.79432948 13.9363473 20.40273722 27.94577262 26.8125 42.0625 C27.12011261 42.73916718 27.42772522 43.41583435 27.74465942 44.11300659 C31.45291023 52.27690471 35.10374912 60.46338949 38.66267395 68.69361877 C40.15937106 72.14138982 41.7220413 75.53075604 43.4375 78.875 C45 82 45 82 45 84 C42.69 84 40.38 84 38 84 C37.608125 83.10667969 37.21625 82.21335937 36.8125 81.29296875 C31.33262931 68.86092858 25.67978083 56.50885931 20.02124023 44.1574707 C19.32794031 42.64405301 18.63466213 41.13062537 17.94140625 39.6171875 C17.60284103 38.87810654 17.26427582 38.13902557 16.91545105 37.37754822 C14.8584616 32.88419563 12.81266087 28.38602447 10.77734375 23.8828125 C10.31118652 22.85188477 9.8450293 21.82095703 9.36474609 20.75878906 C8.51813365 18.8839885 7.67330764 17.00837984 6.83056641 15.13183594 C6.46495605 14.32262695 6.0993457 13.51341797 5.72265625 12.6796875 C5.41078369 11.98601074 5.09891113 11.29233398 4.77758789 10.57763672 C4.10307982 8.99586631 4.10307982 8.99586631 3 8 C0.6021873 13.2282611 -1.7933345 18.45756777 -4.1875 23.6875 C-4.54737 24.47343536 -4.90723999 25.25937073 -5.27801514 26.06912231 C-9.13048803 34.48593112 -12.97266556 42.90677967 -16.74609375 51.359375 C-17.03588608 52.00828201 -17.32567841 52.65718903 -17.62425232 53.32575989 C-18.97414825 56.35093641 -20.31992699 59.37782863 -21.66088867 62.40698242 C-24.91046214 69.70976414 -28.36481221 76.8812912 -32 84 C-33.98 84 -35.96 84 -38 84 C-35.68475915 76.19038161 -32.30210385 68.99554518 -28.79138184 61.67279053 C-26.99528516 57.92532565 -25.21638868 54.16971935 -23.4375 50.4140625 C-22.88832916 49.25561325 -22.88832916 49.25561325 -22.32806396 48.07376099 C-17.7253187 38.34071747 -13.29756738 28.5283397 -8.87402344 18.71289062 C-6.03121778 12.41279102 -3.16021594 6.14834091 0 0 Z "
    fill="#8F204A" transform="translate(684,150)" />
  <path
    d="M0 0 C2.31 0 4.62 0 7 0 C15.76238238 18.49295499 24.43845801 37.01938486 32.86157227 55.66967773 C33.15055893 56.30909805 33.43954559 56.94851837 33.73728943 57.60731506 C34.30441007 58.86262455 34.87080316 60.11826301 35.43641663 61.37425232 C36.92079474 64.65983201 38.43458129 67.92846608 39.98779297 71.18212891 C40.31315536 71.86660599 40.63851776 72.55108307 40.97373962 73.25630188 C41.59886842 74.56746741 42.22881194 75.8763517 42.86427307 77.18254089 C44.2044104 79.99680758 45 81.83836281 45 85 C43.02 85 41.04 85 39 85 C34.49807323 76.42414655 30.47057207 67.67266607 26.5625 58.8125 C21.90953108 48.26400365 17.18893922 37.74894666 12.40133667 27.26083374 C11.67611157 25.67173727 10.95176484 24.08223963 10.228302 22.49234009 C9.21314319 20.2620417 8.19495866 18.03315185 7.17578125 15.8046875 C6.8690448 15.12994888 6.56230835 14.45521027 6.24627686 13.76002502 C4.96030807 10.66230214 4.96030807 10.66230214 3 8 C0.49572504 13.41469915 -2.00376802 18.83158826 -4.5 24.25 C-4.87738312 25.06901794 -5.25476624 25.88803589 -5.64358521 26.73187256 C-12.22753708 41.03283577 -18.66358732 55.39558673 -24.99609375 69.80957031 C-25.31860611 70.54096222 -25.64111847 71.27235413 -25.97340393 72.02590942 C-26.57410356 73.38833987 -27.17251817 74.75178108 -27.76817322 76.11642456 C-29.01348687 78.93756971 -30.2825992 81.4238988 -32 84 C-35.125 84.1875 -35.125 84.1875 -38 84 C-36.07677575 77.82230337 -33.76444024 71.98638229 -31.0078125 66.13671875 C-30.62515228 65.31438751 -30.24249207 64.49205627 -29.84823608 63.64480591 C-28.61171212 60.99021811 -27.36844601 58.33885144 -26.125 55.6875 C-25.26841565 53.85202337 -24.41229929 52.01632827 -23.55664062 50.18041992 C-21.84632739 46.5121268 -20.13361282 42.84497066 -18.41894531 39.17871094 C-16.25671885 34.55323172 -14.1054954 29.92275629 -11.9609375 25.2890625 C-11.65970978 24.63845352 -11.35848206 23.98784454 -11.04812622 23.31752014 C-9.67254162 20.34619163 -8.29739856 17.37465892 -6.92236328 14.40307617 C-4.6791441 9.56738281 -2.42661039 4.74664668 0 0 Z "
    fill="#8F204A" transform="translate(383,150)" />
  <path
    d="M0 0 C1.98 0 3.96 0 6 0 C7 1 7 1 7.12025452 3.17030334 C7.11803391 4.12738693 7.11581329 5.08447052 7.11352539 6.07055664 C7.11344986 7.15160172 7.11337433 8.23264679 7.11329651 9.34645081 C7.10813522 10.5224736 7.10297394 11.6984964 7.09765625 12.91015625 C7.0962413 14.10732773 7.09482635 15.30449921 7.09336853 16.53794861 C7.08774979 20.37949066 7.07519411 24.22097543 7.0625 28.0625 C7.05748741 30.65950437 7.05292409 33.25650965 7.04882812 35.85351562 C7.03777427 42.23569679 7.02101792 48.6178443 7 55 C6.67 55 6.34 55 6 55 C5.67 37.51 5.34 20.02 5 2 C4.01 2 3.02 2 2 2 C2.33 28.73 2.66 55.46 3 83 C4.58403524 81.41596476 4.21974935 79.7228362 4.31640625 77.52734375 C4.35830078 76.62822266 4.40019531 75.72910156 4.44335938 74.80273438 C4.48267578 73.85720703 4.52199219 72.91167969 4.5625 71.9375 C4.60568359 70.98810547 4.64886719 70.03871094 4.69335938 69.06054688 C4.79979276 66.70718647 4.90181008 64.35371646 5 62 C5.66 62 6.32 62 7 62 C7 69.92 7 77.84 7 86 C4.69 86 2.38 86 0 86 C0 57.62 0 29.24 0 0 Z "
    fill="#771A45" transform="translate(259,149)" />
  <path
    d="M0 0 C0.99 0 1.98 0 3 0 C3.90702046 5.44166832 4.17455753 10.71065725 4.203125 16.22265625 C4.20882507 17.08636337 4.21452515 17.9500705 4.22039795 18.83995056 C4.22979569 20.65606479 4.23636099 22.47219567 4.24023438 24.28833008 C4.2499833 27.05775505 4.28107307 29.82645047 4.3125 32.59570312 C4.31902726 34.36718313 4.32427882 36.13866839 4.328125 37.91015625 C4.3404718 38.73218033 4.3528186 39.55420441 4.36553955 40.40113831 C4.34639498 45.36276169 3.64817373 48.64711905 1 53 C0.67 53 0.34 53 0 53 C0 35.51 0 18.02 0 0 Z "
    fill="#982049" transform="translate(879,151)" />
  <path
    d="M0 0 C1.98 0 3.96 0 6 0 C6 2.64 6 5.28 6 8 C5.67 8 5.34 8 5 8 C5 5.69 5 3.38 5 1 C4.01 1 3.02 1 2 1 C2 28.06 2 55.12 2 83 C2.99 83 3.98 83 5 83 C5.495 82.01 5.495 82.01 6 81 C6 82.32 6 83.64 6 85 C4.02 85 2.04 85 0 85 C0 56.95 0 28.9 0 0 Z "
    fill="#7A1D47" transform="translate(877,150)" />
  <path
    d="M0 0 C0.66 0 1.32 0 2 0 C2 24.09 2 48.18 2 73 C0.35 71.35 -1.3 69.7 -3 68 C-1.515 67.505 -1.515 67.505 0 67 C0 44.89 0 22.78 0 0 Z "
    fill="#40022F" transform="translate(823,150)" />
  <path
    d="M0 0 C2.64 0 5.28 0 8 0 C7.88195956 3.89533465 6.55552523 5.69793848 3.875 8.3125 C3.23949219 8.90933594 2.60398437 9.50617188 1.94921875 10.12109375 C0.05141682 11.9504379 -1.62169694 13.85487187 -3.3125 15.875 C-6.80241612 19.93212597 -10.68760823 23.42433753 -14.703125 26.953125 C-16.50902407 28.56246362 -18.2085248 30.18872973 -19.875 31.9375 C-21.88906987 33.89233252 -23.49369609 34.83074106 -26 36 C-20.80420058 29.7535492 -15.15768936 24.09377489 -9.36523438 18.40429688 C-5.20532462 14.2892379 -1.22981457 10.09144672 2.57446289 5.64428711 C3.66655771 4.38460932 4.82113206 3.17886794 6 2 C3.03 1.505 3.03 1.505 0 1 C0 0.67 0 0.34 0 0 Z "
    fill="#31002D" transform="translate(936,149)" />
  <path
    d="M0 0 C0 4.28128985 -2.55635543 6.08270287 -5.375 9 C-11.33467186 14.88039119 -11.33467186 14.88039119 -13.4140625 22.66796875 C-13.45273437 23.56064453 -13.49140625 24.45332031 -13.53125 25.37304688 C-13.5621875 26.30181641 -13.593125 27.23058594 -13.625 28.1875 C-13.66367187 29.12787109 -13.70234375 30.06824219 -13.7421875 31.03710938 C-13.83643187 33.3578771 -13.92204025 35.67863748 -14 38 C-14.33 38 -14.66 38 -15 38 C-17.39341239 19.16445818 -17.39341239 19.16445818 -13.52783203 12.43847656 C-9.6295268 7.62598054 -4.97945368 3.6595453 0 0 Z "
    fill="#37002D" transform="translate(281,196)" />
  <path
    d="M0 0 C0.66 0 1.32 0 2 0 C2.3529641 7.41224603 2.16892108 14.10987619 -2.69921875 20.0859375 C-7.27592821 24.49180712 -10.67821737 25.88711102 -17 26 C-15.3893266 24.92621773 -13.76837917 23.86445188 -12.09765625 22.88671875 C-6.86642501 19.80420821 -2.99348515 16.98045545 -1 11 C-0.77820215 9.10787263 -0.59385985 7.21115528 -0.4375 5.3125 C-0.35371094 4.31863281 -0.26992188 3.32476562 -0.18359375 2.30078125 C-0.09271484 1.16189453 -0.09271484 1.16189453 0 0 Z "
    fill="#3E032F" transform="translate(513,208)" />
  <path
    d="M0 0 C0.33 0 0.66 0 1 0 C1 16.17 1 32.34 1 49 C1.99 49.33 2.98 49.66 4 50 C2.68 50.99 1.36 51.98 0 53 C0 35.51 0 18.02 0 0 Z "
    fill="#35002B" transform="translate(884,150)" />
  <path
    d="M0 0 C0.66 0.99 1.32 1.98 2 3 C-2.54037424 7.64905341 -7.1739556 12.08803495 -12.1015625 16.32421875 C-14.86402294 18.76268691 -17.42741059 21.36309585 -20 24 C-20.66 23.67 -21.32 23.34 -22 23 C-21.44014404 22.44538086 -20.88028809 21.89076172 -20.3034668 21.31933594 C-17.76217616 18.79886475 -15.22480603 16.2744821 -12.6875 13.75 C-11.36588867 12.44095703 -11.36588867 12.44095703 -10.01757812 11.10546875 C-9.17001953 10.26113281 -8.32246094 9.41679687 -7.44921875 8.546875 C-6.27879028 7.38430176 -6.27879028 7.38430176 -5.0847168 6.19824219 C-3.20960443 4.22101866 -1.57883567 2.21699442 0 0 Z "
    fill="#38012E" transform="translate(316,159)" />
  <path
    d="M0 0 C0.33 1.32 0.66 2.64 1 4 C-6.86183562 10.51409237 -12.81723688 13.39932404 -23 13 C-23 12.67 -23 12.34 -23 12 C-22.18208984 11.85304687 -22.18208984 11.85304687 -21.34765625 11.703125 C-12.37014395 9.92296871 -5.40242603 7.66795953 0 0 Z "
    fill="#3B022D" transform="translate(618,222)" />
  <path
    d="M0 0 C1.05864258 0.00290039 1.05864258 0.00290039 2.13867188 0.00585938 C7.24917476 0.04809494 12.19517343 0.40288192 17.25 1.125 C17.25 2.115 17.25 3.105 17.25 4.125 C16.69054687 3.980625 16.13109375 3.83625 15.5546875 3.6875 C5.94736927 1.46329771 -4.05079719 1.2775328 -13.75 3.125 C-13.42 2.465 -13.09 1.805 -12.75 1.125 C-8.5713248 -0.11603512 -4.32206664 -0.0284614 0 0 Z "
    fill="#3D012D" transform="translate(483.75,147.875)" />
  <path
    d="M0 0 C0.55945313 0.31453125 1.11890625 0.6290625 1.6953125 0.953125 C8.85657314 4.77553422 16.15876188 6.97754809 24 9 C24 9.33 24 9.66 24 10 C15.04684983 11.05331179 7.33204463 6.88802976 0 2 C0 1.34 0 0.68 0 0 Z "
    fill="#3A012C" transform="translate(460,186)" />
  <path
    d="M0 0 C1.0625 1.875 1.0625 1.875 2 4 C1.67 4.66 1.34 5.32 1 6 C0.34 6 -0.32 6 -1 6 C-1.18175781 6.65226563 -1.36351562 7.30453125 -1.55078125 7.9765625 C-2.97466596 12.92730011 -4.49407234 17.46546423 -7 22 C-7.66 22 -8.32 22 -9 22 C-7.45173401 17.04242102 -5.48219062 12.36189599 -3.375 7.625 C-2.88773438 6.52091797 -2.88773438 6.52091797 -2.390625 5.39453125 C-1.59615497 3.59529031 -0.79841229 1.79749504 0 0 Z "
    fill="#3D022E" transform="translate(685,160)" />
  <path
    d="M0 0 C2.64 0 5.28 0 8 0 C7.51286902 4.41510774 6.14946803 6.30446645 2.9375 9.3125 C2.20402344 10.00988281 1.47054687 10.70726562 0.71484375 11.42578125 C0.14894531 11.94527344 -0.41695312 12.46476563 -1 13 C-1.33 12.01 -1.66 11.02 -2 10 C0.64 7.36 3.28 4.72 6 2 C3.03 1.505 3.03 1.505 0 1 C0 0.67 0 0.34 0 0 Z "
    fill="#420632" transform="translate(936,149)" />
  <path
    d="M0 0 C3.68881485 3.53156519 6.77382244 7.18534092 9.8125 11.3125 C10.21919922 11.86228516 10.62589844 12.41207031 11.04492188 12.97851562 C12.03368611 14.31625547 13.01738585 15.65773623 14 17 C13.34 17.33 12.68 17.66 12 18 C11.4225 17.0925 10.845 16.185 10.25 15.25 C8.3227587 12.46620701 6.54908032 10.20920294 4 8 C3.34 8 2.68 8 2 8 C1.34 5.36 0.68 2.72 0 0 Z "
    fill="#3D032F" transform="translate(803,206)" />
  <path
    d="M0 0 C2.1104634 7.18781012 -2.75123444 13.72566651 -6 20 C-6.66 20 -7.32 20 -8 20 C-5.83836487 13.06001352 -3.1063786 6.56882431 0 0 Z "
    fill="#3D022F" transform="translate(675,182)" />
  <path
    d="M0 0 C1.96398404 2.94597606 3.15784809 4.80035455 2.6875 8.375 C2.460625 8.91125 2.23375 9.4475 2 10 C-1 4.25 -1 4.25 -1 2 C-3.31 2 -5.62 2 -8 2 C-8 1.34 -8 0.68 -8 0 C-4.61281473 -1.12906176 -3.31795996 -1.24423499 0 0 Z "
    fill="#3D032E" transform="translate(692,148)" />
  <path
    d="M0 0 C-4.2827388 2.8551592 -7.14458058 3.11672494 -12.1875 3.0625 C-13.81751953 3.04896484 -13.81751953 3.04896484 -15.48046875 3.03515625 C-16.31191406 3.02355469 -17.14335937 3.01195312 -18 3 C-12.12156447 -0.08994688 -6.50893221 -0.11222297 0 0 Z "
    fill="#440632" transform="translate(496,227)" />
  <path
    d="M0 0 C0.66 0.33 1.32 0.66 2 1 C-0.64 6.61 -3.28 12.22 -6 18 C-6.33 18 -6.66 18 -7 18 C-7.51141747 13.7808059 -6.28757182 11.34766993 -4.08984375 7.78125 C-2.5547249 5.27223854 -1.28866779 2.64176898 0 0 Z "
    fill="#3C022C" transform="translate(354,209)" />
  <path
    d="M0 0 C0.33 0.66 0.66 1.32 1 2 C-0.32 3.32 -1.64 4.64 -3 6 C-1.68 6.66 -0.36 7.32 1 8 C1 8.66 1 9.32 1 10 C-1.97 9.01 -4.94 8.02 -8 7 C-7.236875 6.401875 -6.47375 5.80375 -5.6875 5.1875 C-3.6516425 3.53040668 -1.8021721 1.89702326 0 0 Z "
    fill="#3F022D" transform="translate(611,184)" />
  <path
    d="M0 0 C4.95258714 3.77339973 8.43679155 7.90789714 12 13 C9.15776803 11.63760782 7.03972359 10.44766831 5 8 C5 7.34 5 6.68 5 6 C4.01 5.67 3.02 5.34 2 5 C0.8125 2.4375 0.8125 2.4375 0 0 Z "
    fill="#3D022D" transform="translate(292,202)" />
  <path
    d="M0 0 C0.66 0 1.32 0 2 0 C2.84584998 1.55575978 3.67618399 3.1199612 4.5 4.6875 C5.19609375 5.99267578 5.19609375 5.99267578 5.90625 7.32421875 C7.04818792 10.11788829 7.21504208 12.01629113 7 15 C3.69383716 11.19791273 0 5.16418515 0 0 Z "
    fill="#3C012D" transform="translate(390,150)" />
  <path
    d="M0 0 C0 4.09089094 -1.69866948 5.44918487 -4.33203125 8.4140625 C-6.36890116 10.35075848 -8.29054445 11.28279118 -11 12 C-7.49102731 7.81576108 -3.91939465 3.80411834 0 0 Z "
    fill="#3B012C" transform="translate(899,196)" />
  <path
    d="M0 0 C0 3.99897642 -1.35316035 5.06701552 -4 8 C-5.63356951 9.37368345 -7.2925002 10.71937515 -9 12 C-9.66 11.67 -10.32 11.34 -11 11 C-7.37 7.37 -3.74 3.74 0 0 Z "
    fill="#3F022F" transform="translate(921,173)" />
  <path
    d="M0 0 C3 3 6 6 9 9 C8.67 9.66 8.34 10.32 8 11 C6.65499045 9.93119777 5.32428562 8.84437492 4 7.75 C3.2575 7.14671875 2.515 6.5434375 1.75 5.921875 C0 4 0 4 0 0 Z "
    fill="#3F0430" transform="translate(915,207)" />
  <path
    d="M0 0 C0.66 1.32 1.32 2.64 2 4 C1.34 4 0.68 4 0 4 C-0.45375 5.134375 -0.9075 6.26875 -1.375 7.4375 C-3 11 -3 11 -5 12 C-4.54738642 10.56068883 -4.08767021 9.12361001 -3.625 7.6875 C-3.24214844 6.48673828 -3.24214844 6.48673828 -2.8515625 5.26171875 C-2 3 -2 3 0 0 Z "
    fill="#42032C" transform="translate(386,157)" />
  <path
    d="M0 0 C2.64 0 5.28 0 8 0 C7.25 4.75 7.25 4.75 5 7 C4.01 6.67 3.02 6.34 2 6 C3.32 4.68 4.64 3.36 6 2 C3.03 1.505 3.03 1.505 0 1 C0 0.67 0 0.34 0 0 Z "
    fill="#450632" transform="translate(318,149)" />
  <path
    d="M0 0 C0.99 0.66 1.98 1.32 3 2 C3 2.66 3 3.32 3 4 C-0.375 4.1875 -0.375 4.1875 -4 4 C-4.66 3.01 -5.32 2.02 -6 1 C-3.03 1.495 -3.03 1.495 0 2 C0 1.34 0 0.68 0 0 Z "
    fill="#711D48" transform="translate(943,231)" />
  <path
    d="M0 0 C0.33 0 0.66 0 1 0 C1.56638908 4.81430721 -0.17438373 7.20307814 -3 11 C-3.33 10.34 -3.66 9.68 -4 9 C-3.22265625 6.8359375 -3.22265625 6.8359375 -2.0625 4.375 C-1.68222656 3.55773437 -1.30195313 2.74046875 -0.91015625 1.8984375 C-0.60980469 1.27195313 -0.30945313 0.64546875 0 0 Z "
    fill="#3D022E" transform="translate(356,222)" />
</svg>